HIERARCHY
ROOT Hips
{
  OFFSET 53.1873 95.914 10.4799
  CHANNELS 6 Xposition Yposition Zposition Zrotation Xrotation Yrotation
  JOINT spine
  {
    OFFSET 0 8.13249 0.467659
    CHANNELS 3 Zrotation Xrotation Yrotation
    JOINT spine1
    {
      OFFSET 0 10.3498 0
      CHANNELS 3 Zrotation Xrotation Yrotation
      JOINT spine2
      {
        OFFSET 0 9.91699 0
        CHANNELS 3 Zrotation Xrotation Yrotation
        JOINT Neck
        {
          OFFSET 0 25.461 1.2139
          CHANNELS 3 Zrotation Xrotation Yrotation
          JOINT Head
          {
            OFFSET 0 7.69245 0
            CHANNELS 3 Zrotation Xrotation Yrotation
            End Site
            {
              OFFSET 0 18.62 -6.14063
            }
          }
        }
        JOINT RightShoulder
        {
          OFFSET -4.17575 10.7096 -0.581445
          CHANNELS 3 Zrotation Xrotation Yrotation
          JOINT RightArm
          {
            OFFSET 0 14.0466 0
            CHANNELS 3 Zrotation Xrotation Yrotation
            JOINT RightArmRoll
            {
              OFFSET 0 7.09099 0
              CHANNELS 3 Zrotation Xrotation Yrotation
              JOINT RightForeArm
              {
                OFFSET 0 20.6535 0
                CHANNELS 3 Zrotation Xrotation Yrotation
                JOINT RightForeArmRoll
                {
                  OFFSET 0 7.95719 0
                  CHANNELS 3 Zrotation Xrotation Yrotation
                  JOINT RightHand
                  {
                    OFFSET 0 15.9683 0
                    CHANNELS 3 Zrotation Xrotation Yrotation
                    End Site
                    {
                      OFFSET 0 0 0
                    }
                  }
                }
              }
            }
          }
        }
        JOINT LeftShoulder
        {
          OFFSET 4.17575 10.7096 -0.581445
          CHANNELS 3 Zrotation Xrotation Yrotation
          JOINT LeftArm
          {
            OFFSET 0 14.0466 0
            CHANNELS 3 Zrotation Xrotation Yrotation
            JOINT LeftArmRoll
            {
              OFFSET 0 7.09099 0
              CHANNELS 3 Zrotation Xrotation Yrotation
              JOINT LeftForeArm
              {
                OFFSET 0 20.6535 0
                CHANNELS 3 Zrotation Xrotation Yrotation
                JOINT LeftForeArmRoll
                {
                  OFFSET 0 7.95718 0
                  CHANNELS 3 Zrotation Xrotation Yrotation
                  JOINT LeftHand
                  {
                    OFFSET 0 15.9683 0
                    CHANNELS 3 Zrotation Xrotation Yrotation
                    End Site
                    {
                      OFFSET 0 0 0
                    }
                  }
                }
              }
            }
          }
        }
      }
    }
  }
  JOINT RightUpLeg
  {
    OFFSET -7.20834 -1.32182 -1.10884
    CHANNELS 3 Zrotation Xrotation Yrotation
    JOINT RightUpLegRoll
    {
      OFFSET 0 18.7238 0
      CHANNELS 3 Zrotation Xrotation Yrotation
      JOINT RightLeg
      {
        OFFSET 0 -23.1866 0
        CHANNELS 3 Zrotation Xrotation Yrotation
        JOINT RightLegRoll
        {
          OFFSET 0 23.2624 0
          CHANNELS 3 Zrotation Xrotation Yrotation
          JOINT RightFoot
          {
            OFFSET 0 19.3621 0
            CHANNELS 3 Zrotation Xrotation Yrotation
            JOINT RightToeBase
            {
              OFFSET 0 16.1857 0
              CHANNELS 3 Zrotation Xrotation Yrotation
              End Site
              {
                OFFSET 0.00686052 7.83862 -0.903522
              }
            }
          }
        }
      }
    }
  }
  JOINT LeftUpLeg
  {
    OFFSET 7.20834 -1.32182 -1.10884
    CHANNELS 3 Zrotation Xrotation Yrotation
    JOINT LeftUpLegRoll
    {
      OFFSET 0 18.7239 0
      CHANNELS 3 Zrotation Xrotation Yrotation
      JOINT LeftLeg
      {
        OFFSET 0 23.1865 0
        CHANNELS 3 Zrotation Xrotation Yrotation
        JOINT LeftLegRoll
        {
          OFFSET 0 23.4775 0
          CHANNELS 3 Zrotation Xrotation Yrotation
          JOINT LeftFoot
          {
            OFFSET 0 19.147 0
            CHANNELS 3 Zrotation Xrotation Yrotation
            JOINT LeftToeBase
            {
              OFFSET 0 16.1857 0
              CHANNELS 3 Zrotation Xrotation Yrotation
              End Site
              {
                OFFSET -0.0307459 7.83863 -0.903521
              }
            }
          }
        }
      }
    }
  }
}
MOTION
Frames: 11
Frame Time: 0.00208333
53.3707 96.0062 9.46532 -0.0839745 -5.75556 -0.175725 0.198747 -1.68851 0.0681458 0.39868 0.625969 0.132492 0.397303 2.27102 0.12587 -7.05322 11.1815 -1.0494 -2.2344 -0.483343 -3.0821 59.122 -7.97576 -4.95831 126.513 34.3467 -67.1438 -1.77561e-006 -1.13975e-006 9.84888e-007 -161.798 75.8803 147.652 6.84626e-006 -4.25145e-006 -3 8.02918 -4.95142 0.697667 -63.567 -4.16048 2.92285 -128.264 41.6103 52.0192 6.38282e-006 2.24726e-006 2.88288e-006 143.135 80.8398 -133.448 1.40007e-005 -5.00007e-007 3.0007 -8.02908 -4.95146 -0.697698 171.652 -0.516104 4.48566 -180 7.01569e-015 179.024 178.798 12.118 179.548 -3.6278e-006 -6.39616e-006 0.0352207 -17.2484 69.4621 20.7066 8.13649 25.2326 -3.48773 -172.704 -1.06195 -2.14771 4.5067e-006 -1.99009e-005 -0.962006 -1.04716 -13.0711 0.522579 -8.67587e-007 6.00584e-006 -0.149812 19.1455 71.2602 -22.4705 -8.13666 25.2351 3.4845 
53.3836 96.0082 9.47794 -0.0851572 -5.7585 -0.184664 0.198839 -1.68773 0.0684571 0.398885 0.627538 0.133062 0.397502 2.27259 0.126437 -7.06373 11.1504 -1.05304 -2.21645 -0.443969 -3.08406 59.1427 -7.93773 -4.93518 126.467 34.3455 -67.0681 -1.77561e-006 -1.13975e-006 9.84888e-007 -161.838 75.9455 147.748 6.84626e-006 -4.25145e-006 -3 8.02918 -4.95142 0.697667 -63.5759 -4.16571 2.92635 -128.212 41.6024 51.9433 6.38282e-006 2.24726e-006 2.88288e-006 143.217 80.8315 -133.532 1.40007e-005 -5.00007e-007 3.00069 -8.02908 -4.95146 -0.697698 171.65 -0.519143 4.48733 -180 7.01569e-015 179.024 178.797 12.1161 179.548 -3.6278e-006 -6.39616e-006 0.035203 -17.2439 69.46 20.7041 8.13649 25.2326 -3.48773 -172.705 -1.06615 -2.14862 4.5067e-006 -1.99009e-005 -0.962071 -1.04747 -13.0756 0.522393 -8.67587e-007 6.00584e-006 -0.150308 19.1525 71.2654 -22.4763 -8.13666 25.2351 3.4845 
53.3759 96.0077 9.47831 -0.0876436 -5.76175 -0.193383 0.199437 -1.68561 0.0688137 0.400066 0.631784 0.13338 0.398696 2.27684 0.126751 -7.08091 11.0932 -1.05648 -2.19361 -0.385125 -3.08512 59.1615 -7.90162 -4.91323 126.402 34.3169 -66.9664 -1.77561e-006 -1.13975e-006 9.84888e-007 -161.873 75.9614 147.802 6.84626e-006 -4.25145e-006 -3 8.02918 -4.95142 0.697667 -63.5808 -4.18343 2.93662 -128.157 41.581 51.8843 6.38282e-006 2.24726e-006 2.88288e-006 143.326 80.8051 -133.631 1.40007e-005 -5.00007e-007 3.00069 -8.02908 -4.95146 -0.697698 171.651 -0.522694 4.48815 -180 7.01569e-015 179.024 178.796 12.1138 179.548 -3.6278e-006 -6.39616e-006 0.035183 -17.2398 69.4579 20.7019 8.13649 25.2326 -3.48773 -172.703 -1.06905 -2.15075 4.5067e-006 -1.99009e-005 -0.962136 -1.04772 -13.0827 0.522172 -8.67587e-007 6.00584e-006 -0.150721 19.1598 71.2715 -22.4828 -8.13666 25.2351 3.4845 
53.3751 96.0066 9.48141 -0.0911454 -5.76505 -0.201947 0.200464 -1.68226 0.0692345 0.402073 0.638489 0.133493 0.400744 2.28354 0.126875 -7.10553 11.0086 -1.06 -2.16407 -0.30297 -3.08543 59.1797 -7.86517 -4.8911 126.318 34.2642 -66.8253 -1.77561e-006 -1.13975e-006 9.84888e-007 -161.917 75.931 147.831 6.84626e-006 -4.25145e-006 -3 8.02918 -4.95142 0.697667 -63.5832 -4.21228 2.953 -128.098 41.5431 51.8384 6.38282e-006 2.24726e-006 2.88288e-006 143.481 80.7554 -133.763 1.40007e-005 -5.00007e-007 3.00069 -8.02908 -4.95146 -0.697698 171.652 -0.526257 4.48831 -180 7.01569e-015 179.024 178.794 12.1117 179.548 -3.6278e-006 -6.39616e-006 0.0351607 -17.2359 69.4559 20.7001 8.13649 25.2326 -3.48773 -172.699 -1.07058 -2.15391 4.5067e-006 -1.99009e-005 -0.9622 -1.04799 -13.0923 0.521903 -8.67587e-007 6.00584e-006 -0.151065 19.1674 71.2784 -22.4903 -8.13666 25.2351 3.4845 
53.3792 96.0077 9.48517 -0.0955303 -5.76842 -0.210328 0.201866 -1.67783 0.069715 0.404809 0.647359 0.133441 0.403546 2.29242 0.126842 -7.13658 10.9003 -1.06358 -2.12886 -0.201105 -3.08513 59.197 -7.82875 -4.86901 126.218 34.1898 -66.6501 -1.77561e-006 -1.13975e-006 9.84888e-007 -161.968 75.8596 147.838 6.84626e-006 -4.25145e-006 -3 8.02918 -4.95142 0.697667 -63.5833 -4.25097 2.97477 -128.035 41.4908 51.8042 6.38282e-006 2.24726e-006 2.88288e-006 143.673 80.6854 -133.919 1.40007e-005 -5.00007e-007 3.00069 -8.02908 -4.95146 -0.697698 171.655 -0.529868 4.4879 -180 7.01569e-015 179.024 178.793 12.1096 179.548 -3.6278e-006 -6.39616e-006 0.035136 -17.2322 69.454 20.6986 8.13649 25.2326 -3.48773 -172.694 -1.07093 -2.15796 4.5067e-006 -1.99009e-005 -0.962263 -1.04826 -13.1039 0.521594 -8.67587e-007 6.00584e-006 -0.151346 19.1751 71.2859 -22.4985 -8.13666 25.2351 3.4845 
53.3783 96.0072 9.48342 -0.100666 -5.77187 -0.2185 0.203594 -1.67247 0.0702507 0.408179 0.658098 0.133261 0.406997 2.30315 0.126685 -7.17307 10.772 -1.06722 -2.08903 -0.0831334 -3.08435 59.2136 -7.7927 -4.84716 126.105 34.096 -66.4462 -1.77561e-006 -1.13975e-006 9.84888e-007 -162.023 75.7522 147.825 6.84626e-006 -4.25145e-006 -3 8.02918 -4.95142 0.697667 -63.5812 -4.29823 3.00124 -127.967 41.4264 51.7798 6.38282e-006 2.24726e-006 2.88288e-006 143.893 80.5983 -134.094 1.40007e-005 -5.00007e-007 3.00069 -8.02908 -4.95146 -0.697698 171.658 -0.533564 4.48701 -180 7.01569e-015 179.024 178.792 12.1075 179.549 -3.6278e-006 -6.39616e-006 0.035109 -17.2286 69.4523 20.6974 8.13649 25.2326 -3.48773 -172.688 -1.07029 -2.16276 4.5067e-006 -1.99009e-005 -0.962325 -1.04853 -13.1173 0.521254 -8.67587e-007 6.00584e-006 -0.151571 19.1829 71.294 -22.5073 -8.13666 25.2351 3.4845 
53.3771 96.0075 9.48815 -0.106421 -5.77542 -0.226436 0.205597 -1.66632 0.0708372 0.412088 0.67041 0.132992 0.410997 2.31547 0.126439 -7.21399 10.6275 -1.07091 -2.04561 0.0473434 -3.0832 59.2293 -7.75738 -4.82577 125.98 33.985 -66.2188 -1.77561e-006 -1.13975e-006 9.84888e-007 -162.082 75.6138 147.792 6.84626e-006 -4.25145e-006 -3 8.02918 -4.95142 0.697667 -63.5772 -4.35278 3.0317 -127.896 41.352 51.7635 6.38282e-006 2.24726e-006 2.88288e-006 144.134 80.4973 -134.281 1.40007e-005 -5.00007e-007 3.00068 -8.02908 -4.95146 -0.697698 171.663 -0.537384 4.48574 -180 7.01569e-015 179.024 178.791 12.1055 179.549 -3.6278e-006 -6.39616e-006 0.0350799 -17.2253 69.4505 20.6965 8.13649 25.2326 -3.48773 -172.681 -1.06886 -2.16818 4.5067e-006 -1.99009e-005 -0.962385 -1.04879 -13.1321 0.520891 -8.67587e-007 6.00584e-006 -0.151748 19.1908 71.3026 -22.5166 -8.13666 25.2351 3.4845 
53.3673 96.0032 9.48029 -0.112661 -5.77908 -0.23411 0.207821 -1.65953 0.0714699 0.416439 0.684 0.132672 0.415441 2.32906 0.126137 -7.25835 10.4704 -1.07465 -1.99966 0.186723 -3.08182 59.2441 -7.72314 -4.80505 125.846 33.8592 -65.9733 -1.77561e-006 -1.13975e-006 9.84889e-007 -162.143 75.4496 147.743 6.84626e-006 -4.25145e-006 -3 8.02918 -4.95142 0.697667 -63.5715 -4.41333 3.06545 -127.821 41.2698 51.7538 6.38282e-006 2.24726e-006 2.88288e-006 144.388 80.3856 -134.473 1.40007e-005 -5.00007e-007 3.00068 -8.02908 -4.95146 -0.697698 171.668 -0.541364 4.48415 -180 7.01569e-015 179.023 178.79 12.1034 179.549 -3.6278e-006 -6.39616e-006 0.0350487 -17.2221 69.4489 20.6958 8.13649 25.2326 -3.48773 -172.673 -1.06683 -2.17408 4.5067e-006 -1.99009e-005 -0.962444 -1.04903 -13.148 0.520512 -8.67587e-007 6.00584e-006 -0.151884 19.1987 71.3114 -22.5261 -8.13666 25.2351 3.4845 
53.3751 96.005 9.48423 -0.119256 -5.78287 -0.241495 0.210217 -1.65225 0.0721445 0.421136 0.698573 0.132339 0.420229 2.34363 0.125811 -7.30515 10.3047 -1.07843 -1.95222 0.331403 -3.08033 59.2579 -7.69034 -4.78521 125.705 33.721 -65.715 -1.77561e-006 -1.13975e-006 9.84888e-007 -162.206 75.2648 147.68 6.84626e-006 -4.25145e-006 -3 8.02918 -4.95142 0.697667 -63.5643 -4.47861 3.1018 -127.743 41.1818 51.7487 6.38282e-006 2.24726e-006 2.88288e-006 144.646 80.2664 -134.666 1.40007e-005 -5.00007e-007 3.00068 -8.02908 -4.95146 -0.697698 171.673 -0.545542 4.48236 -180 7.01569e-015 179.023 178.789 12.1013 179.549 -3.6278e-006 -6.39616e-006 0.0350155 -17.2191 69.4473 20.6952 8.13649 25.2326 -3.48773 -172.664 -1.06441 -2.18033 4.5067e-006 -1.99009e-005 -0.962503 -1.04923 -13.1647 0.520127 -8.67587e-007 6.00584e-006 -0.151984 19.2066 71.3205 -22.5359 -8.13666 25.2351 3.4845 
53.3681 96.0061 9.47963 -0.126073 -5.78679 -0.248565 0.212733 -1.64463 0.0728564 0.426085 0.713833 0.132033 0.425258 2.35889 0.125497 -7.35338 10.1339 -1.08223 -1.90431 0.477781 -3.07886 59.2706 -7.65932 -4.76647 125.559 33.573 -65.4489 -1.77561e-006 -1.13975e-006 9.84888e-007 -162.269 75.0643 147.605 6.84626e-006 -4.25145e-006 -3 8.02918 -4.95142 0.697667 -63.5559 -4.54734 3.14004 -127.663 41.0904 51.7467 6.38282e-006 2.24726e-006 2.88288e-006 144.903 80.1428 -134.855 1.40007e-005 -5.00007e-007 3.00068 -8.02908 -4.95146 -0.697698 171.678 -0.549956 4.48043 -180 7.01569e-015 179.023 178.787 12.0992 179.55 -3.6278e-006 -6.39616e-006 0.0349804 -17.2163 69.4458 20.6948 8.13649 25.2326 -3.48773 -172.655 -1.06178 -2.18679 4.5067e-006 -1.99009e-005 -0.96256 -1.0494 -13.1818 0.519744 -8.67587e-007 6.00584e-006 -0.152057 19.2142 71.3295 -22.5456 -8.13666 25.2351 3.4845 
53.3711 96.0057 9.48116 -0.132979 -5.79087 -0.255293 0.215318 -1.63681 0.0736012 0.431188 0.729484 0.131789 0.430425 2.37454 0.125227 -7.40203 9.96178 -1.08606 -1.85699 0.622256 -3.07753 59.2822 -7.63044 -4.74903 125.41 33.4178 -65.1801 -1.77561e-006 -1.13975e-006 9.84888e-007 -162.331 74.8533 147.519 6.84626e-006 -4.25145e-006 -3 8.02918 -4.95142 0.697667 -63.5465 -4.61825 3.17946 -127.579 40.9975 51.746 6.38282e-006 2.24726e-006 2.88288e-006 145.153 80.018 -135.034 1.40007e-005 -5.00007e-007 3.00067 -8.02908 -4.95146 -0.697698 171.684 -0.554642 4.47847 -180 7.01569e-015 179.023 178.786 12.097 179.55 -3.6278e-006 -6.39616e-006 0.0349434 -17.2137 69.4443 20.6945 8.13649 25.2326 -3.48773 -172.646 -1.05914 -2.19334 4.5067e-006 -1.99009e-005 -0.962617 -1.04951 -13.1991 0.519369 -8.67587e-007 6.00584e-006 -0.152108 19.2217 71.3386 -22.5553 -8.13666 25.2351 3.4845 
